<?xml version="1.0" encoding="utf-8"?>
<!-- Generator: Adobe Illustrator 16.0.0, SVG Export Plug-In . SVG Version: 6.00 Build 0)  -->
<!DOCTYPE svg PUBLIC "-//W3C//DTD SVG 1.1//EN" "http://www.w3.org/Graphics/SVG/1.1/DTD/svg11.dtd">
<svg version="1.1" id="Layer_1" xmlns="http://www.w3.org/2000/svg" xmlns:xlink="http://www.w3.org/1999/xlink" x="0px" y="0px"
	 width="65px" height="75px" viewBox="0 0 65 75" enable-background="new 0 0 65 75" xml:space="preserve">
<g>
	<g>
		<g>
			<path id="SVGID_1_" fill="#CC9900" d="M28.868,34.356v0.032c0.618,0.079,1.086,0.274,1.406,0.583
				c0.318,0.309,0.477,0.723,0.477,1.247c0,0.763-0.267,1.356-0.803,1.781c-0.534,0.424-1.299,0.634-2.292,0.634
				c-0.83,0-1.568-0.14-2.21-0.427v-1.425c0.296,0.155,0.622,0.281,0.98,0.38c0.356,0.096,0.709,0.146,1.057,0.146
				c0.536,0,0.932-0.094,1.186-0.282c0.255-0.187,0.383-0.489,0.383-0.903c0-0.374-0.146-0.638-0.439-0.793
				c-0.294-0.154-0.764-0.232-1.406-0.232h-0.583v-1.285h0.593c0.596,0,1.03-0.078,1.304-0.239c0.274-0.161,0.41-0.437,0.41-0.828
				c0-0.598-0.363-0.899-1.089-0.899c-0.252,0-0.509,0.044-0.769,0.131c-0.261,0.086-0.55,0.237-0.869,0.449l-0.749-1.153
				c0.699-0.521,1.531-0.781,2.5-0.781c0.796,0,1.42,0.166,1.882,0.499c0.459,0.331,0.689,0.793,0.689,1.386
				c0,0.494-0.146,0.916-0.438,1.262C29.799,33.988,29.392,34.225,28.868,34.356L28.868,34.356z M36.254,37.639
				c-0.439,0.665-1.115,0.995-2.027,0.995c-0.885,0-1.553-0.34-2-1.027c-0.45-0.687-0.674-1.699-0.674-3.041
				c0-1.398,0.217-2.428,0.654-3.09c0.437-0.663,1.109-0.996,2.019-0.996c0.883,0,1.553,0.348,2.004,1.042
				c0.455,0.692,0.68,1.708,0.68,3.043C36.91,35.95,36.693,36.974,36.254,37.639L36.254,37.639z M35.043,32.472
				c-0.17-0.422-0.443-0.635-0.816-0.635c-0.381,0-0.652,0.212-0.818,0.635c-0.164,0.425-0.246,1.124-0.246,2.095
				c0,0.973,0.08,1.667,0.244,2.09c0.162,0.419,0.438,0.629,0.82,0.629c0.377,0,0.65-0.212,0.82-0.64
				c0.166-0.424,0.25-1.119,0.25-2.079C35.297,33.596,35.211,32.897,35.043,32.472L35.043,32.472z M42.781,35.033
				c-0.518,0.452-1.25,0.677-2.201,0.677h-0.695v2.818h-1.627v-7.921h2.449c0.93,0,1.637,0.207,2.121,0.62
				c0.484,0.416,0.727,1.03,0.727,1.85C43.555,33.929,43.297,34.582,42.781,35.033L42.781,35.033z M41.6,32.265
				c-0.207-0.188-0.533-0.282-0.977-0.282h-0.738v2.352h0.535c0.498,0,0.871-0.102,1.121-0.307c0.246-0.205,0.373-0.501,0.373-0.892
				C41.914,32.744,41.807,32.452,41.6,32.265L41.6,32.265z M62.223,48.766h-2.869c-0.545,1.984-2.373,3.448-4.537,3.448
				c-2.166,0-3.992-1.464-4.539-3.448H33.672c-0.547,1.984-2.374,3.448-4.537,3.448c-2.166,0-3.994-1.464-4.54-3.448h-2.598
				c-0.687,0-1.243-0.556-1.243-1.24v-1.259h-7.205c-0.687,0-1.244-0.556-1.244-1.24s0.558-1.239,1.244-1.239h7.205V27.722H8.785
				c-0.687,0-1.245-0.553-1.245-1.24c0-0.684,0.558-1.24,1.245-1.24h11.969V23.57c0-0.684,0.556-1.237,1.243-1.237h25.702
				c0.686,0,1.242,0.553,1.242,1.237v5.09h6.033c0.361,0,0.703,0.154,0.936,0.42l7.248,8.239c0.199,0.228,0.309,0.517,0.309,0.818
				v9.388C63.467,48.21,62.908,48.766,62.223,48.766L62.223,48.766z M29.135,49.736c1.223,0,2.218-0.993,2.218-2.211
				c0-1.217-0.996-2.21-2.218-2.21c-1.225,0-2.221,0.993-2.221,2.21C26.915,48.743,27.91,49.736,29.135,49.736L29.135,49.736z
				 M46.455,24.811H23.242v21.477h1.353c0.546-1.986,2.374-3.448,4.54-3.448c2.164,0,3.99,1.462,4.537,3.448h12.781V24.811H46.455z
				 M54.814,49.736c1.225,0,2.221-0.993,2.221-2.211c0-1.217-0.996-2.21-2.221-2.21c-1.223,0-2.217,0.993-2.217,2.21
				C52.598,48.743,53.592,49.736,54.814,49.736L54.814,49.736z M60.977,38.604l-6.564-7.466h-5.471v15.149h1.336
				c0.547-1.986,2.375-3.448,4.537-3.448c2.166,0,3.994,1.462,4.539,3.448h1.623V38.604L60.977,38.604z M9.45,46.267H8.785
				c-0.687,0-1.245-0.556-1.245-1.24s0.558-1.239,1.245-1.239H9.45c0.687,0,1.244,0.555,1.244,1.239S10.136,46.267,9.45,46.267
				L9.45,46.267z M15.58,36.869H2.243C1.556,36.869,1,36.315,1,35.631c0-0.687,0.556-1.24,1.243-1.24H15.58
				c0.687,0,1.242,0.553,1.242,1.24C16.822,36.315,16.267,36.869,15.58,36.869L15.58,36.869z"/>
		</g>
	</g>
</g>
</svg>
