<?xml version="1.0" encoding="utf-8"?>
<!-- Generator: Adobe Illustrator 16.0.0, SVG Export Plug-In . SVG Version: 6.00 Build 0)  -->
<!DOCTYPE svg PUBLIC "-//W3C//DTD SVG 1.1//EN" "http://www.w3.org/Graphics/SVG/1.1/DTD/svg11.dtd">
<svg version="1.1" id="Layer_1" xmlns="http://www.w3.org/2000/svg" xmlns:xlink="http://www.w3.org/1999/xlink" x="0px" y="0px"
	 width="65px" height="75px" viewBox="0 0 65 75" enable-background="new 0 0 65 75" xml:space="preserve">
<g>
	<g>
		<g>
			<path id="SVGID_1_" fill="#CC9900" d="M50.364,27.066l-7.363-9.73c-0.185-0.241-0.458-0.384-0.756-0.384H22.906
				c-0.297,0-0.569,0.144-0.754,0.384l-7.365,9.73c-0.138,0.176-0.21,0.392-0.21,0.62v27.346c0,0.554,0.435,1.005,0.965,1.005
				h34.061c0.53,0,0.963-0.451,0.963-1.005V27.686C50.573,27.459,50.499,27.243,50.364,27.066L50.364,27.066z M47.747,26.85H33.54
				v-7.89h8.24L47.747,26.85L47.747,26.85z M23.372,18.96h8.24v7.889H17.404L23.372,18.96L23.372,18.96z M16.504,54.028V28.856
				h32.133v25.172H16.504L16.504,54.028L16.504,54.028z"/>
		</g>
	</g>
	<g>
		<g>
			<path id="SVGID_3_" fill="#CC9900" d="M22.28,37.93v2.121h2.514v1.426H22.28v3.254h-1.546v-8.231h4.248v1.431H22.28L22.28,37.93z
				 M30.173,41.146c1.117,1.849,1.844,3.044,2.18,3.585h-1.742l-1.771-3.159h-0.836v3.159h-1.571v-8.231h2.158
				c1.007,0,1.753,0.205,2.236,0.611c0.483,0.407,0.727,1.023,0.727,1.854c0,0.483-0.122,0.914-0.362,1.293
				C30.953,40.634,30.613,40.929,30.173,41.146L30.173,41.146z M29.604,38.176c-0.241-0.165-0.618-0.246-1.122-0.246h-0.478v2.223
				h0.508c0.496,0,0.862-0.09,1.1-0.275c0.236-0.186,0.354-0.475,0.354-0.867C29.965,38.619,29.844,38.343,29.604,38.176
				L29.604,38.176z M37.555,43.288v1.442h-4.271v-8.231h4.271v1.431h-2.699v1.807h2.511v1.431h-2.511v2.121H37.555L37.555,43.288z
				 M43.367,43.288v1.442h-4.267v-8.231h4.267v1.431h-2.695v1.807h2.508v1.431h-2.508v2.121H43.367L43.367,43.288z"/>
		</g>
	</g>
</g>
</svg>
