<?xml version="1.0" encoding="utf-8"?>
<!-- Generator: Adobe Illustrator 16.0.0, SVG Export Plug-In . SVG Version: 6.00 Build 0)  -->
<!DOCTYPE svg PUBLIC "-//W3C//DTD SVG 1.1//EN" "http://www.w3.org/Graphics/SVG/1.1/DTD/svg11.dtd">
<svg version="1.1" id="Layer_1" xmlns="http://www.w3.org/2000/svg" xmlns:xlink="http://www.w3.org/1999/xlink" x="0px" y="0px"
	 width="65px" height="75px" viewBox="0 0 65 75" enable-background="new 0 0 65 75" xml:space="preserve">
<g id="L00014.tif">
	<g>
		<g>
			<path fill="#CC9900" d="M11.051,31.852c0.558-0.833,0.984-1.812,1.703-2.467c1.268-1.152,2.398-1.073,3.761-0.045
				c1.875,1.412,1.875,1.412,3.738,0.02c1.489-1.112,2.771-1.05,4.141,0.315c0.468,0.465,0.845,0.588,1.406,0.266
				c0.217-0.124,0.481-0.167,0.723-0.249c1.605-0.547,2.945-0.459,4.171,1.014c1.405,1.689,3.074,3.157,4.769,4.862
				c1.558-1.589,3.23-3.008,4.539-4.708c1.43-1.861,3.043-1.702,4.829-0.979c0.723,0.293,1.145,0.241,1.724-0.326
				c1.284-1.261,2.577-1.269,3.995-0.207c0.612,0.459,1.229,0.915,1.897,1.41c0.647-0.495,1.276-0.978,1.909-1.459
				c1.37-1.041,2.879-0.92,4.086,0.332c0.838,0.867,1.277,1.898,1.274,3.114c-0.005,2.238-0.016,4.478,0.005,6.717
				c0.011,1.111-0.469,1.921-1.423,2.423c-1.586,0.832-3.152,1.729-4.814,2.376c-0.747,0.294-1.704,0.05-2.688,0.05
				c0,1.22-0.036,2.55,0.01,3.875c0.048,1.325-0.547,2.184-1.723,2.706c-3.973,1.767-7.941,3.533-11.911,5.304
				c-1.215,0.541-2.406,0.506-3.617-0.039c-3.933-1.771-7.87-3.535-11.815-5.277c-1.197-0.529-1.769-1.384-1.715-2.701
				c0.042-1.04,0.008-2.082,0.008-3.347c-1.573,0.959-2.718,0.259-3.869-0.509c-1.091-0.728-2.259-1.347-3.301-2.134
				c-0.688-0.52-1.213-1.253-1.812-1.892C11.051,37.484,11.051,34.668,11.051,31.852z M49.213,43.143c-0.034,0-0.07,0-0.104,0
				c0-1.98,0.147-3.976-0.035-5.939c-0.285-3.07-2.894-5.626-5.914-6.12c-0.625-0.103-1.076,0.012-1.535,0.482
				c-1.742,1.783-3.522,3.529-5.3,5.279c-0.811,0.799-1.008,0.801-1.809,0.014c-1.8-1.772-3.568-3.577-5.4-5.313
				c-0.312-0.295-0.9-0.496-1.323-0.443c-3.5,0.441-6.065,3.409-6.128,7.124c-0.056,3.293-0.001,6.589-0.025,9.883
				c-0.004,0.71,0.281,1.122,0.914,1.4c3.861,1.692,7.718,3.396,11.567,5.113c0.88,0.392,1.718,0.385,2.589-0.004
				c3.912-1.74,7.825-3.472,11.745-5.19c0.597-0.262,0.768-0.697,0.763-1.297C49.203,46.47,49.213,44.806,49.213,43.143z
				 M23.498,31.184c-0.965-1.131-1.357-1.189-2.365-0.435c-0.614,0.458-1.236,0.907-1.838,1.381
				c-0.609,0.479-1.172,0.525-1.797-0.002c-0.608-0.513-1.273-0.962-1.913-1.438c-0.834-0.62-1.606-0.591-2.18,0.274
				c-0.364,0.551-0.611,1.279-0.635,1.938c-0.079,2.104,0.004,4.214-0.047,6.32c-0.021,0.824,0.324,1.295,0.99,1.686
				c1.347,0.792,2.698,1.586,3.991,2.461c0.67,0.454,1.174,0.193,1.776-0.061c0.584-0.247,0.556-0.689,0.557-1.179
				c0.004-1.628-0.09-3.267,0.068-4.88C20.346,34.794,21.545,32.786,23.498,31.184z M47.304,31.183
				c1.931,1.488,3.058,3.43,3.362,5.761c0.188,1.414,0.106,2.867,0.127,4.303c0.019,1.222,1.164,1.98,2.276,1.455
				c1.443-0.68,2.86-1.416,4.302-2.103c0.572-0.272,0.766-0.691,0.76-1.301c-0.02-2.172,0.035-4.347-0.036-6.517
				c-0.02-0.595-0.257-1.267-0.605-1.75c-0.678-0.941-1.416-0.975-2.34-0.279c-0.535,0.402-1.085,0.792-1.589,1.232
				c-0.739,0.648-1.433,0.714-2.196,0.036c-0.501-0.443-1.07-0.809-1.603-1.217C48.712,29.997,48.31,30.042,47.304,31.183z"/>
			<path fill="#CC9900" d="M35.814,16.303c0.495,0.114,0.992,0.216,1.481,0.348c3.125,0.844,5.294,3.578,5.397,6.791
				c0.103,3.205-1.91,6.103-4.956,7.129c-3.155,1.065-6.408-0.061-8.424-2.914c-1.713-2.426-1.602-5.975,0.325-8.427
				c1.187-1.511,2.739-2.467,4.669-2.751c0.251-0.037,0.493-0.117,0.741-0.175C35.303,16.303,35.56,16.303,35.814,16.303z
				 M35.456,18.026c-3.135-0.018-5.712,2.513-5.724,5.621c-0.012,3.109,2.566,5.689,5.683,5.688c3.086-0.001,5.604-2.5,5.644-5.6
				C41.099,20.539,38.652,18.044,35.456,18.026z"/>
			<path fill="#CC9900" d="M22.421,24.467c0.002,2.339-1.739,4.058-4.083,4.032c-2.234-0.026-4.026-1.836-4.012-4.053
				c0.013-2.185,1.873-4.003,4.08-3.991C20.674,20.471,22.418,22.213,22.421,24.467z M20.823,24.484
				c0.006-1.311-1.119-2.413-2.455-2.405c-1.276,0.007-2.365,1.098-2.372,2.376c-0.008,1.361,1.064,2.462,2.391,2.458
				C19.725,26.91,20.816,25.822,20.823,24.484z"/>
			<path fill="#CC9900" d="M52.489,20.455c2.197,0.021,4.034,1.88,4.011,4.057c-0.025,2.208-1.857,4.004-4.074,3.993
				c-2.271-0.012-4.091-1.859-4.041-4.103C48.436,22.163,50.234,20.434,52.489,20.455z M54.831,24.502
				c0.012-1.311-1.021-2.386-2.328-2.425c-1.334-0.038-2.479,1.043-2.495,2.359c-0.017,1.359,1.034,2.452,2.382,2.48
				C53.724,26.943,54.818,25.86,54.831,24.502z"/>
		</g>
	</g>
</g>
</svg>
