<svg width="36" height="35" viewBox="0 0 36 35" fill="none" xmlns="http://www.w3.org/2000/svg">
<g id="&#240;&#159;&#166;&#134; icon &#34;discount shape&#34;">
<path id="Vector" d="M34.7201 15.537L32.0561 12.8731C31.6004 12.4174 31.2323 11.5235 31.2323 10.8926V7.10691C31.2323 5.5646 29.9705 4.30271 28.4281 4.30271H24.66C24.029 4.30271 23.1352 3.93465 22.6795 3.47897L20.0155 0.814973C18.9289 -0.271658 17.1412 -0.271658 16.0546 0.814973L13.3555 3.47897C12.9174 3.93465 12.0235 4.30271 11.3751 4.30271H7.60691C6.0646 4.30271 4.80271 5.5646 4.80271 7.10691V10.8751C4.80271 11.506 4.43465 12.3999 3.97897 12.8555L1.31497 15.5195C0.228342 16.6061 0.228342 18.3938 1.31497 19.4805L3.97897 22.1445C4.43465 22.6001 4.80271 23.494 4.80271 24.1249V27.8931C4.80271 29.4354 6.0646 30.6973 7.60691 30.6973H11.3751C12.006 30.6973 12.8999 31.0653 13.3555 31.521L16.0195 34.185C17.1061 35.2717 18.8938 35.2717 19.9805 34.185L22.6445 31.521C23.1001 31.0653 23.994 30.6973 24.6249 30.6973H28.3931C29.9354 30.6973 31.1973 29.4354 31.1973 27.8931V24.1249C31.1973 23.494 31.5653 22.6001 32.021 22.1445L34.685 19.4805C35.8242 18.4114 35.8242 16.6237 34.7201 15.537ZM11.007 12.2596C11.007 11.2957 11.7957 10.507 12.7596 10.507C13.7236 10.507 14.5123 11.2957 14.5123 12.2596C14.5123 13.2236 13.7411 14.0123 12.7596 14.0123C11.7957 14.0123 11.007 13.2236 11.007 12.2596ZM13.6885 23.7043C13.4256 23.9672 13.0926 24.0899 12.7596 24.0899C12.4266 24.0899 12.0936 23.9672 11.8308 23.7043C11.3225 23.196 11.3225 22.3548 11.8308 21.8465L22.3465 11.3308C22.8548 10.8225 23.696 10.8225 24.2043 11.3308C24.7126 11.839 24.7126 12.6803 24.2043 13.1885L13.6885 23.7043ZM23.2754 24.528C22.2939 24.528 21.5053 23.7394 21.5053 22.7754C21.5053 21.8115 22.2939 21.0228 23.2579 21.0228C24.2218 21.0228 25.0105 21.8115 25.0105 22.7754C25.0105 23.7394 24.2394 24.528 23.2754 24.528Z" fill="#292D32"/>
</g>
</svg>
