<svg width="40" height="25" viewBox="0 0 40 25" fill="none" xmlns="http://www.w3.org/2000/svg">
<g id="&#240;&#159;&#166;&#134; icon &#34;free delivery&#34;">
<path id="Vector" d="M39.5 14.708V18.5C39.5 19.46 38.7423 20.228 37.8954 20.228H36.1571C35.8451 17.972 34.0177 16.196 31.8337 16.196C29.6051 16.196 27.7777 17.972 27.4657 20.228H12.9354C12.6234 17.972 10.796 16.196 8.56743 16.196C6.33886 16.196 4.556 17.972 4.244 20.228H2.10457C1.21314 20.228 0.5 19.46 0.5 18.5V14.708H39.5ZM11.5091 5.492H10.5731L10.2611 7.364H11.1526C11.732 7.364 12.2223 6.932 12.2223 6.164C12.2223 5.732 11.9549 5.492 11.5091 5.492ZM35.132 20.948C35.132 22.916 33.6611 24.5 31.8337 24.5C29.9617 24.5 28.4909 22.916 28.4909 20.948C28.4909 18.932 29.9617 17.348 31.8337 17.348C33.6611 17.348 35.132 18.932 35.132 20.948ZM33.4829 20.948C33.4829 19.94 32.7251 19.124 31.8337 19.124C30.8977 19.124 30.1846 19.94 30.1846 20.948C30.1846 21.908 30.8977 22.724 31.8337 22.724C32.7251 22.724 33.4829 21.908 33.4829 20.948ZM11.9103 20.948C11.9103 22.916 10.3949 24.5 8.56743 24.5C6.74 24.5 5.26914 22.916 5.26914 20.948C5.26914 18.932 6.74 17.348 8.56743 17.348C10.3949 17.348 11.9103 18.932 11.9103 20.948ZM10.2166 20.948C10.2166 19.94 9.50343 19.124 8.56743 19.124C7.63143 19.124 6.91829 19.94 6.91829 20.948C6.91829 21.908 7.676 22.724 8.56743 22.724C9.45886 22.724 10.2166 21.908 10.2166 20.948ZM39.5 13.748H0.5V2.228C0.5 1.268 1.21314 0.5 2.06 0.5H26.2623C27.1537 0.5 27.8669 1.268 27.8669 2.228V3.476H31.076C31.6109 3.476 32.1457 3.716 32.5469 4.148L38.8314 10.868C39.2326 11.3 39.4554 11.876 39.4554 12.5L39.5 13.748ZM6.16057 7.172L6.47257 5.492H8.65657L8.79029 4.58H5.62571L4.556 10.532H5.53657L5.98229 8.132H7.85429L7.988 7.172H6.16057ZM11.9994 7.988C12.8463 7.7 13.2474 6.836 13.2474 6.02C13.2474 5.396 12.98 4.916 12.5343 4.724C12.2669 4.628 11.9994 4.58 11.732 4.58H9.77086L8.70114 10.532H9.68171L10.0829 8.324H11.108L11.7766 10.532H12.8463L12.1331 8.324C12.044 8.084 11.9994 7.988 11.9994 7.988ZM18.1503 4.58H14.852L13.7377 10.532H17.1697L17.348 9.572H14.9411L15.2086 7.988H17.0806L17.2589 7.076H15.3869L15.6543 5.492H17.972L18.1503 4.58ZM22.6074 4.58H19.3091L18.2394 10.532H21.6714L21.8051 9.572H19.3983L19.6657 7.988H21.5377L21.716 7.076H19.844L20.1114 5.492H22.4291L22.6074 4.58ZM36.2909 10.628L31.3434 5.54C31.2989 5.492 31.2543 5.492 31.1651 5.492H30.0063C29.8726 5.492 29.7834 5.588 29.7834 5.732V10.82C29.7834 10.964 29.8726 11.06 30.0063 11.06H36.1126C36.3354 11.108 36.4246 10.772 36.2909 10.628Z" fill="black"/>
</g>
</svg>
