<svg width="16" height="15" viewBox="0 0 16 15" fill="none" xmlns="http://www.w3.org/2000/svg">
<g id="&#240;&#159;&#166;&#134; icon &#34;Instagram&#34;">
<path id="Vector" d="M15.9611 7.5C15.9611 3.35786 12.6032 0 8.46109 0C4.31895 0 0.96109 3.35786 0.96109 7.5C0.96109 11.6421 4.31895 15 8.46109 15C12.6032 15 15.9611 11.6421 15.9611 7.5Z" fill="url(#paint0_linear_2_414)"/>
<path id="Vector_2" d="M7.21279 7.5192C7.21279 6.82826 7.7726 6.268 8.46334 6.268C9.15409 6.268 9.71419 6.82826 9.71419 7.5192C9.71419 8.21015 9.15409 8.77041 8.46334 8.77041C7.7726 8.77041 7.21279 8.21015 7.21279 7.5192ZM6.53661 7.5192C6.53661 8.58365 7.39921 9.44649 8.46334 9.44649C9.52748 9.44649 10.3901 8.58365 10.3901 7.5192C10.3901 6.45476 9.52748 5.59191 8.46334 5.59191C7.39921 5.59191 6.53661 6.45476 6.53661 7.5192ZM10.0161 5.51549C10.016 5.60458 10.0424 5.69167 10.0919 5.76575C10.1413 5.83985 10.2116 5.89759 10.2939 5.93172C10.3761 5.96584 10.4667 5.9748 10.554 5.95745C10.6414 5.94011 10.7216 5.89725 10.7846 5.83427C10.8476 5.77132 10.8905 5.69108 10.9079 5.60373C10.9254 5.51636 10.9165 5.4258 10.8824 5.34348C10.8484 5.26117 10.7907 5.19081 10.7167 5.14128C10.6426 5.09176 10.5556 5.0653 10.4665 5.06527H10.4664C10.347 5.06534 10.2325 5.11278 10.1481 5.1972C10.0637 5.2816 10.0162 5.3961 10.0161 5.51549ZM6.94743 10.5743C6.58161 10.5577 6.38276 10.4967 6.25062 10.4452C6.07545 10.377 5.95045 10.2957 5.81903 10.1645C5.68761 10.0332 5.60626 9.90828 5.53837 9.73303C5.48684 9.60093 5.42592 9.40196 5.40929 9.03603C5.39109 8.6404 5.38745 8.52156 5.38745 7.51924C5.38745 6.51691 5.39138 6.3984 5.40929 6.00244C5.42594 5.63651 5.48734 5.43794 5.53837 5.30542C5.60657 5.13019 5.68779 5.00516 5.81903 4.87371C5.95027 4.74224 6.07514 4.66087 6.25062 4.59295C6.3827 4.54143 6.58161 4.48047 6.94743 4.46384C7.34295 4.44564 7.46176 4.442 8.46334 4.442C9.46493 4.442 9.58387 4.44595 9.9797 4.46384C10.3455 4.4805 10.544 4.5419 10.6765 4.59295C10.8517 4.66087 10.9767 4.74242 11.1081 4.87371C11.2395 5.00498 11.3206 5.13019 11.3888 5.30542C11.4403 5.43754 11.5012 5.63651 11.5179 6.00244C11.5361 6.3984 11.5397 6.51691 11.5397 7.51924C11.5397 8.52156 11.5361 8.64007 11.5179 9.03603C11.5012 9.40196 11.44 9.60086 11.3888 9.73303C11.3206 9.90828 11.2394 10.0333 11.1081 10.1645C10.9769 10.2956 10.8517 10.377 10.6765 10.4452C10.5444 10.4967 10.3455 10.5577 9.9797 10.5743C9.58419 10.5925 9.46537 10.5962 8.46334 10.5962C7.46131 10.5962 7.34284 10.5925 6.94743 10.5743ZM6.91637 3.78861C6.51692 3.80679 6.24396 3.87016 6.00559 3.96293C5.75873 4.05875 5.54974 4.18729 5.34089 4.39585C5.13207 4.60442 5.00389 4.8138 4.9081 5.06073C4.81535 5.29932 4.75201 5.57221 4.73381 5.97177C4.71533 6.37198 4.71109 6.49992 4.71109 7.5192C4.71109 8.53848 4.71533 8.66643 4.73381 9.06663C4.75201 9.46622 4.81535 9.73908 4.9081 9.97767C5.00389 10.2245 5.1321 10.4341 5.34089 10.6426C5.5497 10.851 5.75873 10.9794 6.00559 11.0755C6.24442 11.1683 6.51692 11.2316 6.91637 11.2498C7.31666 11.268 7.44436 11.2725 8.46334 11.2725C9.48234 11.2725 9.61024 11.2683 10.0103 11.2498C10.4098 11.2316 10.6826 11.1683 10.9211 11.0755C11.1678 10.9794 11.3769 10.8511 11.5858 10.6426C11.7946 10.434 11.9225 10.2245 12.0186 9.97767C12.1113 9.73908 12.175 9.4662 12.1929 9.06663C12.2111 8.66613 12.2153 8.53848 12.2153 7.5192C12.2153 6.49992 12.2111 6.37198 12.1929 5.97177C12.1747 5.57219 12.1113 5.29918 12.0186 5.06073C11.9225 4.81395 11.7943 4.60476 11.5858 4.39585C11.3773 4.18696 11.1678 4.05875 10.9214 3.96293C10.6826 3.87016 10.4098 3.8065 10.0106 3.78861C9.61054 3.77041 9.48264 3.76587 8.46364 3.76587C7.44465 3.76587 7.31666 3.7701 6.91637 3.78861Z" fill="white"/>
</g>
<defs>
<linearGradient id="paint0_linear_2_414" x1="15.6728" y1="15" x2="0.67279" y2="3.4368e-08" gradientUnits="userSpaceOnUse">
<stop stop-color="#FBE18A"/>
<stop offset="0.21" stop-color="#FCBB45"/>
<stop offset="0.38" stop-color="#F75274"/>
<stop offset="0.52" stop-color="#D53692"/>
<stop offset="0.74" stop-color="#8F39CE"/>
<stop offset="1" stop-color="#5B4FE9"/>
</linearGradient>
</defs>
</svg>
