<svg width="37" height="35" viewBox="0 0 37 35" fill="none" xmlns="http://www.w3.org/2000/svg">
<g id="&#240;&#159;&#166;&#134; icon &#34;phone&#34;">
<path id="Vector" d="M26.5854 32.0833C20.4647 32.0756 14.5969 29.707 10.2689 25.4969C5.94094 21.2868 3.50598 15.579 3.49805 9.625C3.49805 7.84584 4.22461 6.13955 5.51791 4.8815C6.8112 3.62344 8.56528 2.91667 10.3943 2.91667C10.7816 2.9138 11.1682 2.94799 11.5486 3.01875C11.9164 3.07169 12.2779 3.15961 12.6281 3.28125C12.8743 3.3653 13.0937 3.51041 13.2646 3.70223C13.4355 3.89406 13.552 4.12596 13.6025 4.375L15.6564 13.125C15.7118 13.3625 15.7051 13.6097 15.637 13.8441C15.5689 14.0784 15.4416 14.2925 15.2666 14.4667C15.0717 14.6708 15.0567 14.6854 13.2127 15.6188C14.6894 18.77 17.2803 21.3007 20.5137 22.75C21.4882 20.9417 21.5032 20.9271 21.7131 20.7375C21.8922 20.5673 22.1122 20.4434 22.3531 20.3772C22.594 20.311 22.8482 20.3045 23.0923 20.3583L32.0874 22.3563C32.3352 22.4122 32.5643 22.5285 32.7532 22.6944C32.942 22.8602 33.0844 23.0701 33.1668 23.3042C33.2934 23.6503 33.3887 24.0065 33.4517 24.3688C33.512 24.7353 33.5421 25.1059 33.5416 25.4771C33.514 27.2486 32.767 28.9376 31.4637 30.1753C30.1604 31.413 28.4067 32.0989 26.5854 32.0833Z" fill="#231F20"/>
</g>
</svg>
