<svg width="30" height="31" viewBox="0 0 30 31" fill="none" xmlns="http://www.w3.org/2000/svg">
<path id="Vector" d="M3.33333 30.5H26.6667C27.5507 30.5 28.3986 30.1488 29.0237 29.5237C29.6488 28.8986 30 28.0507 30 27.1667V3.83333C30 2.94928 29.6488 2.10143 29.0237 1.47631C28.3986 0.851189 27.5507 0.5 26.6667 0.5H3.33333C2.44928 0.5 1.60143 0.851189 0.976311 1.47631C0.351189 2.10143 0 2.94928 0 3.83333V27.1667C0 28.0507 0.351189 28.8986 0.976311 29.5237C1.60143 30.1488 2.44928 30.5 3.33333 30.5ZM6.66667 13.8333H13.3333V7.16667H16.6667V13.8333H23.3333V17.1667H16.6667V23.8333H13.3333V17.1667H6.66667V13.8333Z" fill="black"/>
</svg>
