<svg width="35" height="36" viewBox="0 0 35 36" fill="none" xmlns="http://www.w3.org/2000/svg">
<path d="M35 18C35 21.4612 33.9736 24.8446 32.0507 27.7225C30.1278 30.6003 27.3947 32.8433 24.197 34.1679C20.9993 35.4924 17.4806 35.839 14.0859 35.1637C10.6913 34.4885 7.57306 32.8218 5.12564 30.3744C2.67822 27.9269 1.01151 24.8087 0.336265 21.4141C-0.338976 18.0194 0.00758246 14.5007 1.33212 11.303C2.65665 8.10533 4.89967 5.37221 7.77753 3.44928C10.6554 1.52636 14.0388 0.5 17.5 0.5C19.7982 0.49971 22.074 0.952162 24.1973 1.83152C26.3206 2.71087 28.2499 3.9999 29.875 5.62498C31.5001 7.25007 32.7891 9.17937 33.6685 11.3027C34.5478 13.426 35.0003 15.7018 35 18ZM28.7003 9.95402C28.6991 9.27316 28.4281 8.62053 27.9467 8.13909C27.4652 7.65765 26.8126 7.38667 26.1317 7.3855H12.4713C11.7902 7.38608 11.1373 7.65688 10.6557 8.13845C10.1741 8.62001 9.90333 9.27299 9.90275 9.95402V21.6428H22.2038C22.5798 21.6955 22.9241 21.8822 23.1735 22.1685C23.4228 22.4548 23.5604 22.8215 23.561 23.2011V25.7343C23.561 25.9942 23.4651 26.245 23.2918 26.4387C23.1185 26.6324 22.8799 26.7554 22.6216 26.7843H22.3873C22.1825 26.7618 21.9887 26.6799 21.8299 26.5487C21.671 26.4176 21.5539 26.2428 21.4931 26.046C21.4323 25.8491 21.4303 25.6388 21.4874 25.4409C21.5446 25.2429 21.6584 25.066 21.8148 24.9319C21.9507 24.8074 22.0456 24.6447 22.0871 24.4651C22.1285 24.2855 22.1145 24.0976 22.0469 23.9262C21.9796 23.7685 21.8675 23.6342 21.7244 23.5398C21.5813 23.4455 21.4136 23.3954 21.2423 23.3957H9.08489C8.40338 23.3957 7.74978 23.6664 7.26789 24.1483C6.78599 24.6302 6.51526 25.2838 6.51526 25.9653C6.51526 26.6468 6.78599 27.3004 7.26789 27.7823C7.74978 28.2642 8.40338 28.5349 9.08489 28.5349H22.321C22.4439 28.5432 22.5672 28.5432 22.6901 28.5349H22.7432C22.8278 28.5347 22.912 28.522 22.9929 28.4973C23.603 28.3884 24.1599 28.081 24.5773 27.6229C24.9946 27.1648 25.2489 26.5817 25.3006 25.9642L25.3117 12.6132C25.9026 12.6507 26.4947 12.5625 27.0491 12.3546C27.534 12.1672 27.951 11.8378 28.2456 11.4095C28.5403 10.9811 28.6987 10.4739 28.7003 9.95402ZM22.7432 10.9797H12.2701V12.7325H22.7432V10.9797ZM22.7432 14.4456H12.2701V16.1963H22.7432V14.4456ZM22.7432 17.9138H12.2701V19.6645H22.7432V17.9138ZM26.9496 9.95623C26.9491 10.123 26.8978 10.2857 26.8027 10.4227C26.7076 10.5597 26.573 10.6645 26.4169 10.7233L26.4014 10.7255L26.3638 10.7454C26.0245 10.8546 25.6666 10.8937 25.3117 10.8603V9.95402C25.3114 9.82941 25.3398 9.70641 25.3946 9.5945C25.4494 9.48259 25.5292 9.38476 25.6278 9.30857C25.7713 9.19555 25.949 9.13475 26.1317 9.13616C26.3487 9.13616 26.5567 9.22233 26.7101 9.37571C26.8634 9.52909 26.9496 9.73932 26.9496 9.95623Z" fill="black"/>
</svg>
