<svg width="41" height="35" viewBox="0 0 41 35" fill="none" xmlns="http://www.w3.org/2000/svg">
<g id="&#240;&#159;&#166;&#134; icon &#34;published with changes&#34;">
<path id="Vector" d="M30.2131 13.898L18.3177 24.2084L11.1837 18.0251L13.5561 15.9689L18.3177 20.0959L27.8408 11.8418L30.2131 13.898ZM7.2298 17.5001C7.2298 14.1022 8.94598 11.0543 11.638 8.9251L15.6424 12.3959V3.64594H5.54727L9.24883 6.85427C5.95108 9.50843 3.86475 13.2855 3.86475 17.5001C3.86475 25.0688 10.5107 31.2814 19.0075 32.0105V29.0647C12.3783 28.3501 7.2298 23.4355 7.2298 17.5001ZM37.5153 17.5001C37.5153 9.93135 30.8693 3.71885 22.3725 2.98969V5.93552C29.0017 6.6501 34.1502 11.5647 34.1502 17.5001C34.1502 20.898 32.4341 23.9459 29.742 26.0751L25.7376 22.6043V31.3543H35.8328L32.1312 28.1459C35.429 25.4918 37.5153 21.7147 37.5153 17.5001Z" fill="black"/>
</g>
</svg>
