<svg width="19" height="15" viewBox="0 0 19 15" fill="none" xmlns="http://www.w3.org/2000/svg">
<g id="&#240;&#159;&#166;&#134; icon &#34;twitter original&#34;">
<path id="Vector" d="M6.30565 15C13.2724 15 17.0819 9.22799 17.0819 4.22372C17.0819 4.05994 17.0819 3.89615 17.0717 3.73383C17.8129 3.19748 18.4527 2.53343 18.9611 1.77278C18.2701 2.07924 17.5371 2.28036 16.7865 2.36943C17.5769 1.89564 18.1682 1.15095 18.4507 0.273838C17.7071 0.715257 16.8935 1.02635 16.0451 1.19367C15.4741 0.586539 14.7189 0.184519 13.8964 0.049829C13.0739 -0.0848607 12.23 0.0552891 11.4952 0.44859C10.7603 0.841891 10.1756 1.46641 9.83154 2.22551C9.48743 2.98461 9.4031 3.83596 9.59161 4.64781C8.08573 4.57237 6.61255 4.18108 5.26771 3.49933C3.92287 2.81759 2.73643 1.86064 1.78543 0.690616C1.3006 1.52419 1.1517 2.51122 1.36905 3.45073C1.5864 4.39023 2.15366 5.21158 2.95534 5.74752C2.35673 5.72729 1.77163 5.56435 1.24874 5.27225V5.32051C1.24863 6.19399 1.55032 7.04068 2.10275 7.71729C2.65517 8.3939 3.4244 8.85886 4.28025 9.03349C3.72234 9.18546 3.13701 9.20748 2.56927 9.09784C2.81099 9.85085 3.2821 10.5094 3.91667 10.9814C4.55124 11.4534 5.31751 11.7152 6.10822 11.7301C4.76575 12.7815 3.10889 13.3511 1.40375 13.3475C1.10173 13.3477 0.799959 13.3301 0.5 13.2949C2.23185 14.4073 4.2473 14.9977 6.30565 14.9956" fill="#1DA1F2"/>
</g>
</svg>
